<svg width="20" height="25" viewBox="0 0 20 25" fill="none" xmlns="http://www.w3.org/2000/svg">
<path d="M10 24.4444C11.375 24.4444 12.5 23.3162 12.5 21.9373H7.5C7.5 22.6023 7.76339 23.2399 8.23223 23.7101C8.70107 24.1803 9.33696 24.4444 10 24.4444ZM17.5 16.9231V10.6553C17.5 6.80684 15.45 3.58519 11.875 2.73276V1.88034C11.875 0.839886 11.0375 0 10 0C8.9625 0 8.125 0.839886 8.125 1.88034V2.73276C4.5375 3.58519 2.5 6.7943 2.5 10.6553V16.9231L0 19.4302V20.6838H20V19.4302L17.5 16.9231Z" fill="#4290C9"/>
</svg>
