<svg width="86" height="85" viewBox="0 0 86 85" fill="none" xmlns="http://www.w3.org/2000/svg">
<path d="M43 0C19.1757 0 0 19.0963 0 42.5C0 65.9037 19.321 85 43 85C66.679 85 86 65.9037 86 42.5C86 19.0963 66.8243 0 43 0ZM64.5 34.0287L35.0101 63.1757L21.5 49.8226C19.1757 47.5253 19.1757 43.9358 21.5 41.6385C23.8243 39.3412 27.4561 39.3412 29.7804 41.6385L35.0101 46.8074L56.2196 25.8446C58.5439 23.5473 62.1757 23.5473 64.5 25.8446C66.679 28.1419 66.679 31.7314 64.5 34.0287Z" fill="#309C2E"/>
</svg>
