<svg width="24" height="28" viewBox="0 0 24 28" fill="none" xmlns="http://www.w3.org/2000/svg">
<path d="M7.92857 15.4286H5.78571C5.43214 15.4286 5.14286 15.1393 5.14286 14.7857V12.6429C5.14286 12.2893 5.43214 12 5.78571 12H7.92857C8.28214 12 8.57143 12.2893 8.57143 12.6429V14.7857C8.57143 15.1393 8.28214 15.4286 7.92857 15.4286ZM13.7143 14.7857V12.6429C13.7143 12.2893 13.425 12 13.0714 12H10.9286C10.575 12 10.2857 12.2893 10.2857 12.6429V14.7857C10.2857 15.1393 10.575 15.4286 10.9286 15.4286H13.0714C13.425 15.4286 13.7143 15.1393 13.7143 14.7857ZM18.8571 14.7857V12.6429C18.8571 12.2893 18.5679 12 18.2143 12H16.0714C15.7179 12 15.4286 12.2893 15.4286 12.6429V14.7857C15.4286 15.1393 15.7179 15.4286 16.0714 15.4286H18.2143C18.5679 15.4286 18.8571 15.1393 18.8571 14.7857ZM13.7143 19.9286V17.7857C13.7143 17.4321 13.425 17.1429 13.0714 17.1429H10.9286C10.575 17.1429 10.2857 17.4321 10.2857 17.7857V19.9286C10.2857 20.2821 10.575 20.5714 10.9286 20.5714H13.0714C13.425 20.5714 13.7143 20.2821 13.7143 19.9286ZM8.57143 19.9286V17.7857C8.57143 17.4321 8.28214 17.1429 7.92857 17.1429H5.78571C5.43214 17.1429 5.14286 17.4321 5.14286 17.7857V19.9286C5.14286 20.2821 5.43214 20.5714 5.78571 20.5714H7.92857C8.28214 20.5714 8.57143 20.2821 8.57143 19.9286ZM18.8571 19.9286V17.7857C18.8571 17.4321 18.5679 17.1429 18.2143 17.1429H16.0714C15.7179 17.1429 15.4286 17.4321 15.4286 17.7857V19.9286C15.4286 20.2821 15.7179 20.5714 16.0714 20.5714H18.2143C18.5679 20.5714 18.8571 20.2821 18.8571 19.9286ZM24 6V24.8571C24 26.2768 22.8482 27.4286 21.4286 27.4286H2.57143C1.15179 27.4286 0 26.2768 0 24.8571V6C0 4.58036 1.15179 3.42857 2.57143 3.42857H5.14286V0.642857C5.14286 0.289286 5.43214 0 5.78571 0H7.92857C8.28214 0 8.57143 0.289286 8.57143 0.642857V3.42857H15.4286V0.642857C15.4286 0.289286 15.7179 0 16.0714 0H18.2143C18.5679 0 18.8571 0.289286 18.8571 0.642857V3.42857H21.4286C22.8482 3.42857 24 4.58036 24 6ZM21.4286 24.5357V8.57143H2.57143V24.5357C2.57143 24.7125 2.71607 24.8571 2.89286 24.8571H21.1071C21.2839 24.8571 21.4286 24.7125 21.4286 24.5357Z" fill="#35444E"/>
</svg>
