<svg width="133" height="134" viewBox="0 0 133 134" fill="none" xmlns="http://www.w3.org/2000/svg">
<g clip-path="url(#clip0)">
<path d="M66.4817 133.363C103.172 133.363 132.915 103.669 132.915 67.0382C132.915 30.4079 103.172 0.713135 66.4817 0.713135C29.7917 0.713135 0.048645 30.4079 0.048645 67.0382C0.048645 103.669 29.7917 133.363 66.4817 133.363Z" fill="#4290C9"/>
<path d="M57.22 65.3367C63.3924 65.3367 69.5647 65.3367 75.7366 65.3367L75.8378 66.6002L66.7888 80.2962L57.0682 66.465L57.2198 65.3374L57.22 65.3367Z" fill="#B3B3B3"/>
<path d="M57.3394 61.9009L57.179 69.6266L44.0506 76.7939V103.066H66.1512H88.2489V76.7936L76.048 69.2224L75.3779 61.498L57.3397 61.9007H57.3394V61.9009Z" fill="#F0BA7D"/>
<path d="M51.273 39.3716C51.273 39.3716 50.5201 37.7202 48.4991 38.5386C46.4776 39.356 48.5899 47.5162 49.3625 48.6546C50.1343 49.7925 51.377 49.0699 51.8296 49.0248C52.4732 53.8894 52.5305 57.2422 54.481 59.2934C56.3284 61.2355 60.5578 65.1935 62.7859 66.5739C64.295 66.8921 65.4207 67.0789 66.4798 67.1348C67.5383 67.0789 68.6651 66.8915 70.1736 66.5739C72.4014 65.1943 76.6316 61.2355 78.4785 59.2934C80.4285 57.2422 80.4863 53.8902 81.1299 49.0248C81.5825 49.0702 82.8253 49.7925 83.597 48.6546C84.3693 47.5162 86.482 39.3558 84.4604 38.5386C82.4389 37.7199 81.6865 39.3716 81.6865 39.3716C81.6865 39.3716 83.6845 32.9636 80.1331 26.6562C77.6995 22.3332 72.1489 20.091 66.48 19.9265C60.8111 20.091 55.2605 22.3332 52.8269 26.6562C49.2756 32.9639 51.2735 39.3716 51.2735 39.3716H51.273Z" fill="#FED298"/>
<path d="M50.741 71.8994L53.8849 70.6631L56.4184 68.3901L65.3641 75.1639H67.592L76.5406 68.3821L82.217 71.9002L92.0811 88.6396L84.2692 130.954C78.6065 132.522 72.641 133.364 66.4779 133.364C61.4516 133.364 56.557 132.803 51.8501 131.747L37.8484 89.977L50.7402 71.8997L50.741 71.8994Z" fill="#15BDB2"/>
<path d="M79.3482 69.7831L75.7366 65.3367L67.593 75.1643L74.5831 82.9186L79.3482 69.7831Z" fill="#21D0C3"/>
<path d="M53.6041 69.7048L57.2203 65.3367L65.3644 75.1642L58.0967 82.8388L53.6041 69.7048Z" fill="#21D0C3"/>
<path d="M53.6047 69.7043L29.6668 77.4761C28.6934 77.7914 28.082 78.6179 27.8837 79.6211L20.8446 115.234C25.585 119.71 30.9861 123.493 36.8855 126.429L40.3849 115.027C40.4256 114.896 40.5502 114.815 40.6864 114.831C40.8222 114.847 40.9254 114.956 40.933 115.093L41.4382 128.484C49.1666 131.628 57.6197 133.363 66.4803 133.363V128.917L53.6052 69.7046L53.6047 69.7043Z" fill="white"/>
<path d="M53.6046 69.7043L50.8629 70.5453L43.5993 82.9189L52.769 83.2058L47.1395 86.4057L66.4805 128.917L53.6054 69.7049L53.6046 69.7043Z" fill="#EEF3F7"/>
<path d="M79.3482 69.7827L103.293 77.4762C104.268 77.7895 104.878 78.618 105.076 79.6212L112.115 115.235C107.374 119.711 101.973 123.494 96.0733 126.431L92.5734 115.028C92.5332 114.897 92.4073 114.815 92.2718 114.832C92.1361 114.848 92.0339 114.957 92.0258 115.093L91.5219 128.485C83.7935 131.629 75.3404 133.364 66.4803 133.364H66.4798V128.917L79.3479 69.7835L79.3482 69.7827Z" fill="#EEF3F7"/>
<path d="M79.3482 69.783L80.8702 70.2452L89.3542 82.9973L80.1846 83.2846L85.8145 86.4848L66.4798 128.918L79.3479 69.7837V69.7832H79.3482V69.783Z" fill="white"/>
<path d="M69.1929 128.639C68.3856 128.639 67.7311 129.291 67.7311 130.094C67.7311 130.899 68.3861 131.55 69.1929 131.55C69.9997 131.55 70.6547 130.898 70.6547 130.094C70.6547 129.29 69.9997 128.639 69.1929 128.639Z" fill="#D9DADA"/>
<path d="M79.9423 41.2797L81.3509 41.2305L81.8042 39.6257L83.1311 38.3039C84.0074 31.7159 84.2656 21.4626 77.716 21.7585C77.716 21.7585 77.1253 14.2823 65.3113 15.7477C53.4965 17.2136 48.1584 24.8281 48.7945 31.1809C49.43 37.5336 49.1739 38.3031 49.1739 38.3031L50.5007 39.6255L50.7008 41.451L51.8595 41.3779C51.8595 41.3779 52.2228 38.9345 52.5864 37.8598C52.9502 36.7854 52.8363 34.6101 52.8363 34.6101C52.8363 34.6101 66.791 35.4977 70.5621 30.7086C72.8912 27.7511 78.2402 22.6267 78.5095 29.7235C78.5894 31.8281 77.8057 34.9824 79.3054 37.2782C80.8056 39.5742 79.9417 41.2792 79.9417 41.2792H79.9423V41.2797Z" fill="#666666"/>
<path d="M66.4798 128.917L70.252 111.583L67.6886 77.415L69.0852 76.8199L67.5923 75.1641H65.3644L63.8334 76.7813L65.2705 77.4152L62.7712 111.86L66.4801 128.917L66.4798 128.917Z" fill="#0F7986"/>
<path d="M69.0629 128.639C68.3278 128.639 67.7309 129.232 67.7309 129.964C67.7309 130.697 68.3275 131.291 69.0629 131.291C69.7976 131.291 70.395 130.697 70.395 129.964C70.395 129.233 69.7976 128.639 69.0629 128.639Z" fill="white"/>
<path d="M89.9378 106.696C87.3454 106.249 85.6067 103.788 86.0538 101.201C86.5014 98.6132 88.9662 96.876 91.5579 97.3227C94.1504 97.7696 95.8891 100.231 95.442 102.819C94.9943 105.407 92.5295 107.143 89.9373 106.696L89.9378 106.696Z" fill="#FEFEFE"/>
<path d="M89.9848 106.423C87.5433 106.002 85.9058 103.686 86.3275 101.247C86.7492 98.8096 89.07 97.1745 91.512 97.595C93.9534 98.016 95.5909 100.333 95.1692 102.771C94.7475 105.209 92.4267 106.843 89.9848 106.422V106.423Z" fill="#0F7986"/>
<path d="M90.3258 104.452C88.9753 104.22 88.0692 102.936 88.3019 101.588C88.5347 100.239 89.82 99.3348 91.1702 99.5672C92.5212 99.8001 93.4274 101.082 93.1941 102.431C92.9613 103.779 91.6765 104.684 90.3258 104.451V104.452Z" fill="#EBECEC"/>
<path d="M90.6177 99.8328L91.7084 100.021L92.2949 96.6295L91.2042 96.4414L90.6177 99.8328Z" fill="#FEFEFE"/>
<path d="M54.0857 107.637L56.1296 107.232C56.9982 107.059 57.7173 106.549 58.1763 105.864C58.6341 105.179 58.8332 104.32 58.6603 103.453L56.2565 91.3624C55.349 86.7999 51.7741 84.4733 47.6889 83.9575C46.1236 83.7598 44.4825 83.8318 42.8925 84.1461C41.3012 84.4604 39.7587 85.0189 38.3882 85.798C34.819 87.8277 32.4136 91.3367 33.3221 95.9065L35.726 107.998C35.8988 108.865 36.4108 109.582 37.0964 110.041L37.0982 110.04C37.7844 110.498 38.6431 110.696 39.5116 110.524L41.5545 110.119L41.3873 109.278L39.344 109.683C38.7072 109.809 38.0763 109.663 37.5736 109.329L37.5742 109.328C37.0712 108.992 36.6955 108.466 36.5688 107.83L34.165 95.7391C33.3406 91.5924 35.5446 88.3964 38.8104 86.5405C40.1012 85.806 41.5568 85.2793 43.0593 84.9816C44.5619 84.6845 46.1091 84.6174 47.5836 84.8034C51.3228 85.2752 54.5926 87.3893 55.4149 91.5279L57.8193 103.619C57.9451 104.254 57.7993 104.884 57.4635 105.387C57.1266 105.888 56.5996 106.263 55.9625 106.389L53.9186 106.794L54.0857 107.635V107.636V107.637Z" fill="#21D0C3"/>
<path d="M56.9051 93.1539L56.5379 91.3071C55.6029 86.6032 51.9246 84.2056 47.7248 83.6747C46.1291 83.4737 44.4579 83.5457 42.838 83.8667C41.2182 84.1867 39.6459 84.7567 38.2495 85.55C34.5785 87.6372 32.1059 91.2504 33.0427 95.9626L33.4104 97.8093L34.8133 97.5306L34.4461 95.6838C33.6502 91.6789 35.7873 88.5867 38.9514 86.7879C40.2162 86.0692 41.6425 85.5534 43.1157 85.2616C44.5884 84.9697 46.1052 84.9041 47.5499 85.0862C51.1729 85.5433 54.3404 87.5864 55.1358 91.5846L55.503 93.4313L56.9064 93.1531L56.9051 93.1539Z" fill="#4D4D4D"/>
<path d="M39.9334 110.625L41.0269 110.408C41.3015 110.716 41.7263 110.874 42.1591 110.788C42.8097 110.659 43.2325 110.029 43.1032 109.379C42.9745 108.73 42.3424 108.308 41.6918 108.437C41.2579 108.522 40.9262 108.831 40.7908 109.219L39.698 109.436L39.9341 110.625L39.9334 110.625Z" fill="#076673"/>
<path d="M54.9546 107.649L53.8624 107.866C53.7266 108.254 53.395 108.562 52.9619 108.648C52.3113 108.777 51.6796 108.355 51.5504 107.705C51.4217 107.056 51.8439 106.425 52.494 106.297C52.9271 106.211 53.3524 106.37 53.6257 106.677L54.7185 106.46L54.9546 107.649Z" fill="#076673"/>
<path d="M43.5026 83.7582L43.0856 81.6606L42.2564 81.8252L41.4283 81.9892L41.85 84.1075C42.1659 84.0155 42.4856 83.9372 42.8084 83.8732C43.0386 83.8274 43.2696 83.7898 43.5026 83.7582Z" fill="#666666"/>
<path d="M41.7141 109.459C41.9108 109.42 42.0387 109.229 41.9995 109.033C41.9606 108.836 41.7701 108.708 41.5726 108.747C41.3757 108.786 41.248 108.977 41.2872 109.173C41.3264 109.369 41.5171 109.498 41.7141 109.458V109.459Z" fill="#0F7986"/>
<path d="M52.5233 107.313C52.7197 107.274 52.8471 107.083 52.8082 106.887C52.7693 106.69 52.5788 106.562 52.3813 106.601C52.1844 106.64 52.0567 106.831 52.0959 107.028C52.1343 107.224 52.3258 107.352 52.5233 107.313Z" fill="#0F7986"/>
<path d="M90.1932 104.429C88.9157 104.209 88.059 102.997 88.2791 101.72C88.4994 100.445 89.7134 99.5895 90.9912 99.81C92.2687 100.03 93.1259 101.243 92.9053 102.518C92.6845 103.793 91.4697 104.649 90.1927 104.429H90.1932Z" fill="#FEFEFE"/>
<path d="M53.6162 70.3336C53.5797 70.3341 40.6773 70.4409 42.8566 81.7105L41.6567 81.9396C39.1999 69.2346 53.5612 69.1175 53.602 69.1169L53.6162 70.3336Z" fill="#4D4D4D"/>
<path d="M79.3624 69.1746C81.4675 69.2313 85.5365 69.8041 88.6687 73.6078C91.7337 77.33 93.8824 84.166 92.2758 96.6994L91.0663 96.5468C92.6215 84.416 90.6119 77.8845 87.7278 74.3811C84.9098 70.9584 81.2355 70.4425 79.3346 70.3915L79.3631 69.1746H79.3624Z" fill="#4D4D4D"/>
</g>
<defs>
<clipPath id="clip0">
<rect width="132.867" height="132.651" fill="white" transform="translate(0.0462036 0.713135)"/>
</clipPath>
</defs>
</svg>
