<svg width="108" height="108" viewBox="0 0 108 108" fill="none" xmlns="http://www.w3.org/2000/svg">
<g clip-path="url(#clip0)">
<path d="M54.0014 107.999C83.8246 107.999 108.001 83.8229 108.001 53.9997C108.001 24.1765 83.8246 0 54.0014 0C24.1782 0 0.00167847 24.1765 0.00167847 53.9997C0.00167847 83.8229 24.1782 107.999 54.0014 107.999Z" fill="#4290C9"/>
<path d="M46.4734 52.6143C51.4905 52.6143 56.5077 52.6143 61.5244 52.6143L61.6067 53.643L54.2513 64.7938L46.35 53.5329L46.4732 52.6149L46.4734 52.6143Z" fill="#B3B3B3"/>
<path d="M46.5704 49.817L46.4401 56.107L35.7687 61.9424V83.3325H53.7331H71.6951V61.9422L61.7776 55.7779L61.233 49.489L46.5707 49.8168H46.5704V49.817Z" fill="#F0BA7D"/>
<path d="M41.6393 31.4746C41.6393 31.4746 41.0274 30.1301 39.3846 30.7964C37.7414 31.4619 39.4585 38.1056 40.0864 39.0325C40.7137 39.9589 41.7239 39.3706 42.0918 39.3339C42.6149 43.2945 42.6615 46.0243 44.247 47.6942C45.7486 49.2754 49.1865 52.4979 50.9976 53.6218C52.2242 53.8808 53.1392 54.0329 54.0001 54.0785C54.8605 54.0329 55.7764 53.8804 57.0026 53.6218C58.8135 52.4986 62.252 49.2754 63.7532 47.6942C65.3382 46.0243 65.3852 43.2951 65.9084 39.3339C66.2762 39.3708 67.2864 39.9589 67.9137 39.0325C68.5415 38.1056 70.2587 31.4617 68.6155 30.7964C66.9723 30.1299 66.3608 31.4746 66.3608 31.4746C66.3608 31.4746 67.9848 26.2575 65.0982 21.1222C63.12 17.6025 58.6082 15.777 54.0003 15.6431C49.3924 15.777 44.8806 17.6025 42.9024 21.1222C40.0158 26.2577 41.6398 31.4746 41.6398 31.4746H41.6393Z" fill="#FED298"/>
<path d="M41.2069 57.9574L43.7624 56.9509L45.8218 55.1003L53.0933 60.6153H54.9042L62.178 55.0938L66.792 57.9581L74.81 71.5868L68.4601 106.038C63.8572 107.314 59.0082 108 53.9986 108C49.913 108 45.9345 107.543 42.1085 106.683L30.7273 72.6756L41.2063 57.9577L41.2069 57.9574Z" fill="#15BDB2"/>
<path d="M64.4601 56.2344L61.5245 52.6143L54.9051 60.6156L60.5869 66.9289L64.4601 56.2344Z" fill="#21D0C3"/>
<path d="M43.5342 56.1707L46.4736 52.6143L53.0935 60.6155L47.186 66.8639L43.5342 56.1707Z" fill="#21D0C3"/>
<path d="M43.5347 56.1702L24.0769 62.4977C23.2857 62.7544 22.7887 63.4273 22.6275 64.244L16.9059 93.2391C20.7591 96.8831 25.1493 99.9634 29.9446 102.354L32.7891 93.0706C32.8222 92.9641 32.9234 92.8976 33.0342 92.9109C33.1445 92.924 33.2284 93.0124 33.2346 93.1239L33.6453 104.027C39.9272 106.587 46.7983 107.999 54.0006 107.999V104.379L43.5351 56.1704L43.5347 56.1702Z" fill="white"/>
<path d="M43.5346 56.1702L41.306 56.8549L35.4019 66.9291L42.8554 67.1626L38.2795 69.7679L54.0007 104.379L43.5352 56.1706L43.5346 56.1702Z" fill="#EEF3F7"/>
<path d="M64.4601 56.2339L83.9237 62.4977C84.7162 62.7527 85.2115 63.4273 85.3727 64.244L91.0946 93.2396C87.2409 96.8835 82.8505 99.9641 78.055 102.355L75.2101 93.071C75.1774 92.9645 75.0751 92.8981 74.965 92.9114C74.8547 92.9244 74.7716 93.0132 74.765 93.1244L74.3554 104.027C68.0734 106.587 61.2024 108 54.0005 108H54.0001V104.379L64.4599 56.2345L64.4601 56.2339Z" fill="#EEF3F7"/>
<path d="M64.4601 56.2344L65.6973 56.6107L72.5934 66.9931L65.14 67.227L69.7163 69.8325L54.0001 104.38L64.4599 56.235V56.2346H64.4601V56.2344Z" fill="white"/>
<path d="M56.2055 104.153C55.5492 104.153 55.0172 104.684 55.0172 105.338C55.0172 105.993 55.5496 106.523 56.2055 106.523C56.8613 106.523 57.3937 105.992 57.3937 105.338C57.3937 104.683 56.8613 104.153 56.2055 104.153Z" fill="#D9DADA"/>
<path d="M64.943 33.028L66.088 32.9879L66.4565 31.6813L67.535 30.6051C68.2473 25.2414 68.4572 16.8935 63.1333 17.1344C63.1333 17.1344 62.6532 11.0476 53.0503 12.2407C43.4467 13.4342 39.1077 19.6336 39.6247 24.8058C40.1413 29.978 39.9331 30.6045 39.9331 30.6045L41.0116 31.6811L41.1743 33.1674L42.1161 33.1079C42.1161 33.1079 42.4114 31.1186 42.7069 30.2436C43.0027 29.3688 42.9101 27.5978 42.9101 27.5978C42.9101 27.5978 54.2531 28.3205 57.3184 24.4213C59.2116 22.0134 63.5594 17.8413 63.7784 23.6193C63.8434 25.3327 63.2063 27.9009 64.4253 29.77C65.6448 31.6394 64.9426 33.0275 64.9426 33.0275H64.943V33.028Z" fill="#666666"/>
<path d="M54.0001 104.379L57.0663 90.2666L54.9827 62.4481L56.1179 61.9636L54.9044 60.6155H53.0935L51.849 61.9322L53.0172 62.4483L50.9856 90.4919L54.0003 104.379L54.0001 104.379Z" fill="#0F7986"/>
<path d="M56.0998 104.153C55.5022 104.153 55.0171 104.636 55.0171 105.232C55.0171 105.829 55.502 106.312 56.0998 106.312C56.697 106.312 57.1825 105.829 57.1825 105.232C57.1825 104.636 56.697 104.153 56.0998 104.153Z" fill="white"/>
<path d="M73.0678 86.2876C70.9605 85.9238 69.5473 83.9203 69.9107 81.8136C70.2746 79.7068 72.2781 78.2925 74.3847 78.6561C76.492 79.02 77.9053 81.0239 77.5418 83.1312C77.178 85.2378 75.1745 86.6517 73.0674 86.2878L73.0678 86.2876Z" fill="#FEFEFE"/>
<path d="M73.106 86.0652C71.1215 85.7224 69.7905 83.8366 70.1332 81.8515C70.476 79.8668 72.3624 78.5355 74.3474 78.8779C76.3319 79.2207 77.6629 81.1075 77.3201 83.092C76.9774 85.0771 75.0909 86.4075 73.106 86.0647V86.0652Z" fill="#0F7986"/>
<path d="M73.3832 84.4608C72.2855 84.2715 71.5489 83.2268 71.7381 82.1288C71.9273 81.0307 72.9721 80.2945 74.0696 80.4837C75.1678 80.6734 75.9044 81.7167 75.7147 82.8152C75.5255 83.913 74.4812 84.6496 73.3832 84.4603V84.4608Z" fill="#EBECEC"/>
<path d="M73.6205 80.6999L74.5071 80.8531L74.9838 78.0919L74.0972 77.9387L73.6205 80.6999Z" fill="#FEFEFE"/>
<path d="M43.9257 87.0533L45.587 86.7236C46.293 86.5832 46.8776 86.1678 47.2507 85.6101C47.6228 85.0524 47.7846 84.3535 47.6441 83.6473L45.6902 73.8035C44.9525 70.0889 42.0467 68.1946 38.7261 67.7747C37.4537 67.6137 36.1197 67.6724 34.8273 67.9282C33.5338 68.1841 32.28 68.6389 31.1661 69.2732C28.2648 70.9257 26.3096 73.7826 27.0481 77.5031L29.002 87.3474C29.1425 88.0534 29.5587 88.6375 30.116 89.0106L30.1175 89.0102C30.6752 89.3834 31.3732 89.5441 32.0792 89.404L33.7397 89.0743L33.6039 88.3896L31.9429 88.7193C31.4253 88.8221 30.9125 88.7035 30.5039 88.431L30.5043 88.4306C30.0955 88.1568 29.7901 87.7283 29.6872 87.2111L27.7333 77.3669C27.0631 73.9908 28.8546 71.3887 31.5093 69.8777C32.5585 69.2797 33.7416 68.8509 34.9629 68.6085C36.1843 68.3666 37.4419 68.3119 38.6404 68.4634C41.6798 68.8475 44.3376 70.5688 45.0061 73.9383L46.9605 83.7825C47.0628 84.2998 46.9442 84.8121 46.6713 85.2216C46.3975 85.6299 45.969 85.9354 45.4512 86.0377L43.7898 86.3674L43.9257 87.0521V87.0531V87.0533Z" fill="#21D0C3"/>
<path d="M46.2174 75.2621L45.9189 73.7585C45.1589 69.9287 42.169 67.9767 38.7552 67.5445C37.4582 67.3808 36.0997 67.4395 34.7831 67.7008C33.4664 67.9613 32.1883 68.4254 31.0532 69.0713C28.0693 70.7706 26.0595 73.7123 26.821 77.5489L27.1199 79.0524L28.2602 78.8255L27.9617 77.3219C27.3148 74.0612 29.0519 71.5437 31.6238 70.0791C32.6519 69.494 33.8113 69.074 35.0088 68.8365C36.2058 68.5988 37.4388 68.5454 38.613 68.6937C41.558 69.0658 44.1327 70.7293 44.7792 73.9844L45.0777 75.488L46.2184 75.2615L46.2174 75.2621Z" fill="#4D4D4D"/>
<path d="M32.422 89.4869L33.3109 89.3104C33.5341 89.5608 33.8794 89.6892 34.2312 89.6196C34.7601 89.5146 35.1037 89.0012 34.9986 88.4719C34.894 87.9435 34.3802 87.5999 33.8513 87.7049C33.4987 87.7745 33.2291 88.0258 33.119 88.3422L32.2307 88.5183L32.4227 89.4865L32.422 89.4869Z" fill="#076673"/>
<path d="M44.632 87.0635L43.7441 87.24C43.6338 87.5562 43.3642 87.807 43.0122 87.8773C42.4833 87.9819 41.9699 87.6387 41.8649 87.1094C41.7602 86.581 42.1034 86.0672 42.6318 85.9626C42.9839 85.893 43.3296 86.0221 43.5517 86.2718L44.44 86.0953L44.632 87.0635Z" fill="#076673"/>
<path d="M35.3233 67.6125L34.9843 65.9048L34.3103 66.0387L33.6372 66.1723L33.98 67.8969C34.2367 67.822 34.4966 67.7583 34.759 67.7062C34.9461 67.6689 35.1338 67.6383 35.3233 67.6125Z" fill="#666666"/>
<path d="M33.8695 88.5372C34.0293 88.5056 34.1333 88.3495 34.1015 88.1902C34.0698 88.0301 33.915 87.9259 33.7545 87.9576C33.5944 87.9892 33.4906 88.1449 33.5225 88.3046C33.5543 88.4642 33.7094 88.5688 33.8695 88.5366V88.5372Z" fill="#0F7986"/>
<path d="M42.6557 86.7898C42.8154 86.7581 42.9189 86.6025 42.8873 86.4432C42.8556 86.2827 42.7008 86.1789 42.5403 86.2105C42.3802 86.2422 42.2764 86.3978 42.3083 86.5579C42.3395 86.7178 42.4952 86.8216 42.6557 86.7898Z" fill="#0F7986"/>
<path d="M73.2754 84.4421C72.237 84.263 71.5407 83.2756 71.7195 82.2365C71.8986 81.1985 72.8854 80.5018 73.9241 80.6813C74.9625 80.8603 75.6592 81.8478 75.4799 82.8858C75.3004 83.9242 74.313 84.621 73.275 84.4421H73.2754Z" fill="#FEFEFE"/>
<path d="M43.5441 56.6827C43.5143 56.6831 33.0267 56.77 34.7982 65.9454L33.8228 66.1319C31.8258 55.7879 43.4994 55.6926 43.5325 55.6921L43.5441 56.6827Z" fill="#4D4D4D"/>
<path d="M64.4717 55.739C66.1828 55.7852 69.4903 56.2516 72.0363 59.3484C74.5277 62.3789 76.2742 67.9445 74.9683 78.1488L73.9851 78.0246C75.2493 68.1481 73.6158 62.8303 71.2714 59.978C68.9809 57.1913 65.9942 56.7713 64.4491 56.7298L64.4723 55.739H64.4717Z" fill="#4D4D4D"/>
</g>
<defs>
<clipPath id="clip0">
<rect width="108" height="108" fill="white"/>
</clipPath>
</defs>
</svg>
