<svg width="77" height="78" viewBox="0 0 77 78" fill="none" xmlns="http://www.w3.org/2000/svg">
<g id="doctor 3" clip-path="url(#clip0)">
<path id="Vector" d="M38.1485 77.1018C59.1678 77.1018 76.2073 60.0315 76.2073 38.9743C76.2073 17.917 59.1678 0.84668 38.1485 0.84668C17.1292 0.84668 0.0897217 17.917 0.0897217 38.9743C0.0897217 60.0315 17.1292 77.1018 38.1485 77.1018Z" fill="#4290C9"/>
<path id="Vector_2" d="M32.8428 37.9961C36.3789 37.9961 39.915 37.9961 43.4508 37.9961L43.5088 38.7225L38.3247 46.5957L32.7559 38.6447L32.8427 37.9965L32.8428 37.9961Z" fill="#B3B3B3"/>
<path id="Vector_3" d="M32.9112 36.0209L32.8194 40.4621L25.2982 44.5822V59.6852H37.9594H50.619V44.5821L43.6292 40.2297L43.2453 35.7893L32.9114 36.0208H32.9112V36.0209Z" fill="#F0BA7D"/>
<path id="Vector_4" d="M29.4357 23.0698C29.4357 23.0698 29.0045 22.1204 27.8466 22.5909C26.6885 23.0608 27.8987 27.7518 28.3412 28.4062C28.7834 29.0603 29.4954 28.6449 29.7546 28.619C30.1233 31.4155 30.1562 33.3428 31.2736 34.522C32.332 35.6384 34.7549 37.9137 36.0314 38.7073C36.8959 38.8902 37.5408 38.9975 38.1476 39.0297C38.754 38.9975 39.3995 38.8899 40.2637 38.7073C41.54 37.9142 43.9635 35.6384 45.0215 34.522C46.1386 33.3428 46.1718 31.4159 46.5405 28.619C46.7998 28.6451 47.5117 29.0603 47.9539 28.4062C48.3963 27.7518 49.6066 23.0607 48.4485 22.5909C47.2904 22.1203 46.8594 23.0698 46.8594 23.0698C46.8594 23.0698 48.004 19.3861 45.9694 15.7602C44.5752 13.2751 41.3954 11.9862 38.1477 11.8916C34.9 11.9862 31.7202 13.2751 30.326 15.7602C28.2914 19.3863 29.436 23.0698 29.436 23.0698H29.4357Z" fill="#FED298"/>
<path id="Vector_5" d="M29.131 41.7686L30.9321 41.0578L32.3836 39.7512L37.5085 43.6452H38.7848L43.9113 39.7466L47.1633 41.769L52.8143 51.3918L48.3389 75.7167C45.0949 76.618 41.6773 77.1018 38.1465 77.1018C35.267 77.1018 32.4629 76.7793 29.7664 76.1724L21.745 52.1606L29.1305 41.7687L29.131 41.7686Z" fill="#15BDB2"/>
<g id="Group">
<path id="Vector_6" d="M45.5198 40.5521L43.4508 37.9961L38.7854 43.6456L42.7899 48.1032L45.5198 40.5521Z" fill="#21D0C3"/>
<path id="Vector_7" d="M30.7712 40.5072L32.8429 37.9961L37.5086 43.6456L33.345 48.0574L30.7712 40.5072Z" fill="#21D0C3"/>
</g>
<path id="Vector_8" d="M30.7716 40.5068L17.0578 44.9745C16.5001 45.1558 16.1499 45.6309 16.0363 46.2075L12.0037 66.6801C14.7194 69.253 17.8136 71.4279 21.1933 73.1157L23.1981 66.5611C23.2214 66.4859 23.2928 66.439 23.3708 66.4484C23.4486 66.4576 23.5078 66.52 23.5121 66.5988L23.8015 74.2971C28.229 76.1044 33.0718 77.1017 38.1479 77.1017V74.5456L30.7719 40.507L30.7716 40.5068Z" fill="white"/>
<g id="Group_2">
<path id="Vector_9" d="M30.7716 40.5068L29.2009 40.9903L25.0397 48.1034L30.2929 48.2682L27.0678 50.1078L38.1481 74.5459L30.772 40.5071L30.7716 40.5068Z" fill="#EEF3F7"/>
<path id="Vector_10" d="M45.5199 40.5518L59.2378 44.9744C59.7963 45.1545 60.1454 45.6308 60.259 46.2075L64.2918 66.6804C61.5758 69.2533 58.4814 71.4283 55.1015 73.1162L53.0965 66.5614C53.0734 66.4862 53.0013 66.4392 52.9237 66.4486C52.8459 66.4579 52.7874 66.5206 52.7828 66.5991L52.494 74.2973C48.0666 76.1047 43.2238 77.1019 38.148 77.1019H38.1477V74.5459L45.5197 40.5522L45.5199 40.5518Z" fill="#EEF3F7"/>
</g>
<path id="Vector_11" d="M45.5197 40.552L46.3917 40.8177L51.2521 48.1484L45.9989 48.3136L49.2243 50.1532L38.1476 74.5461L45.5196 40.5524V40.5522H45.5197V40.552Z" fill="white"/>
<path id="Vector_12" d="M39.702 74.386C39.2394 74.386 38.8645 74.7607 38.8645 75.2224C38.8645 75.6849 39.2397 76.0594 39.702 76.0594C40.1642 76.0594 40.5394 75.6847 40.5394 75.2224C40.5394 74.7604 40.1642 74.386 39.702 74.386Z" fill="#D9DADA"/>
<path id="Vector_13" d="M45.8601 24.1668L46.6671 24.1385L46.9268 23.216L47.6869 22.4562C48.189 18.669 48.3369 12.7748 44.5847 12.9449C44.5847 12.9449 44.2463 8.64717 37.4782 9.48955C30.7096 10.3322 27.6515 14.7095 28.0159 18.3614C28.38 22.0134 28.2332 22.4557 28.2332 22.4557L28.9934 23.2159L29.108 24.2653L29.7718 24.2233C29.7718 24.2233 29.9799 22.8187 30.1882 22.2009C30.3966 21.5832 30.3314 20.3328 30.3314 20.3328C30.3314 20.3328 38.3259 20.843 40.4863 18.0899C41.8206 16.3898 44.885 13.444 45.0393 17.5237C45.0851 18.7335 44.6361 20.5468 45.4953 21.8665C46.3547 23.1864 45.8598 24.1665 45.8598 24.1665H45.8601V24.1668Z" fill="#666666"/>
<path id="Vector_14" d="M38.1476 74.5458L40.3086 64.5813L38.8401 44.9395L39.6402 44.5974L38.7849 43.6455H37.5086L36.6314 44.5752L37.4548 44.9396L36.0229 64.7403L38.1477 74.5459L38.1476 74.5458Z" fill="#0F7986"/>
<path id="Vector_15" d="M39.6275 74.386C39.2063 74.386 38.8644 74.7271 38.8644 75.1478C38.8644 75.569 39.2062 75.9104 39.6275 75.9104C40.0484 75.9104 40.3906 75.5692 40.3906 75.1478C40.3906 74.7272 40.0484 74.386 39.6275 74.386Z" fill="white"/>
<path id="Vector_16" d="M51.5864 61.7719C50.1012 61.515 49.1052 60.1004 49.3613 58.6129C49.6178 57.1254 51.0298 56.1267 52.5146 56.3835C53.9998 56.6404 54.9959 58.0553 54.7397 59.5432C54.4833 61.0306 53.0712 62.029 51.5862 61.772L51.5864 61.7719Z" fill="#FEFEFE"/>
<path id="Vector_17" d="M51.6133 61.6148C50.2147 61.3728 49.2766 60.0413 49.5181 58.6397C49.7597 57.2383 51.0893 56.2984 52.4883 56.5401C53.8869 56.7821 54.825 58.1144 54.5834 59.5155C54.3419 60.9172 53.0123 61.8565 51.6133 61.6145V61.6148Z" fill="#0F7986"/>
<path id="Vector_18" d="M51.8088 60.4818C51.0351 60.3482 50.5159 59.6105 50.6493 58.8353C50.7827 58.06 51.519 57.5402 52.2925 57.6738C53.0665 57.8077 53.5857 58.5443 53.452 59.32C53.3186 60.095 52.5826 60.6151 51.8088 60.4815V60.4818Z" fill="#EBECEC"/>
<path id="Vector_19" d="M51.976 57.8265L52.6008 57.9347L52.9368 55.9851L52.3119 55.877L51.976 57.8265Z" fill="#FEFEFE"/>
<path id="Vector_20" d="M31.0472 62.3126L32.2181 62.0798C32.7157 61.9806 33.1276 61.6873 33.3906 61.2936C33.6529 60.8998 33.7669 60.4063 33.6679 59.9077L32.2908 52.9572C31.7709 50.3345 29.7228 48.997 27.3825 48.7005C26.4857 48.5868 25.5456 48.6282 24.6347 48.8089C23.723 48.9896 22.8394 49.3107 22.0542 49.7585C20.0095 50.9253 18.6314 52.9425 19.1519 55.5695L20.529 62.5202C20.6281 63.0187 20.9214 63.4311 21.3142 63.6946L21.3152 63.6943C21.7083 63.9577 22.2002 64.0712 22.6978 63.9723L23.8681 63.7395L23.7724 63.2561L22.6018 63.4889C22.2369 63.5614 21.8755 63.4777 21.5876 63.2853L21.5879 63.285C21.2997 63.0917 21.0845 62.7892 21.0119 62.424L19.6348 55.4732C19.1625 53.0895 20.4251 51.2522 22.2961 50.1854C23.0356 49.7631 23.8695 49.4604 24.7303 49.2892C25.5911 49.1184 26.4774 49.0798 27.3222 49.1868C29.4643 49.458 31.3375 50.6733 31.8087 53.0524L33.1861 60.0032C33.2582 60.3684 33.1746 60.7301 32.9823 61.0192C32.7893 61.3076 32.4873 61.5232 32.1224 61.5954L30.9514 61.8282L31.0472 62.3117V62.3124V62.3126Z" fill="#21D0C3"/>
<path id="Vector_21" d="M32.6623 53.9871L32.4519 52.9254C31.9163 50.2213 29.8091 48.8431 27.403 48.5379C26.4889 48.4223 25.5314 48.4637 24.6035 48.6483C23.6755 48.8322 22.7747 49.1599 21.9747 49.6159C19.8716 50.8158 18.4551 52.8928 18.9918 55.6017L19.2025 56.6633L20.0062 56.5031L19.7958 55.4414C19.3398 53.1392 20.5641 51.3616 22.3768 50.3275C23.1015 49.9144 23.9185 49.6179 24.7625 49.4502C25.6062 49.2823 26.4752 49.2446 27.3028 49.3493C29.3784 49.612 31.193 50.7866 31.6487 53.085L31.8591 54.1466L32.6631 53.9866L32.6623 53.9871Z" fill="#4D4D4D"/>
<g id="Group_3">
<path id="Vector_22" d="M22.9394 64.0306L23.5659 63.9059C23.7232 64.0827 23.9666 64.1734 24.2145 64.1243C24.5872 64.0501 24.8294 63.6876 24.7554 63.3139C24.6816 62.9408 24.3195 62.6982 23.9468 62.7724C23.6982 62.8215 23.5082 62.9989 23.4306 63.2223L22.8046 63.3467L22.9399 64.0303L22.9394 64.0306Z" fill="#076673"/>
<path id="Vector_23" d="M31.5449 62.3196L30.9191 62.4442C30.8414 62.6675 30.6514 62.8446 30.4033 62.8942C30.0305 62.9681 29.6687 62.7257 29.5947 62.3521C29.5209 61.979 29.7628 61.6162 30.1352 61.5423C30.3833 61.4931 30.627 61.5843 30.7836 61.7606L31.4096 61.636L31.5449 62.3196Z" fill="#076673"/>
</g>
<path id="Vector_24" d="M24.9842 48.5857L24.7453 47.3799L24.2703 47.4745L23.7959 47.5687L24.0375 48.7865C24.2184 48.7336 24.4016 48.6886 24.5865 48.6518C24.7184 48.6255 24.8507 48.6039 24.9842 48.5857Z" fill="#666666"/>
<g id="Group_4">
<path id="Vector_25" d="M23.9595 63.3603C24.0722 63.3379 24.1455 63.2277 24.1231 63.1153C24.1008 63.0023 23.9917 62.9287 23.8785 62.951C23.7657 62.9734 23.6925 63.0833 23.715 63.196C23.7374 63.3088 23.8467 63.3826 23.9595 63.3598V63.3603Z" fill="#0F7986"/>
<path id="Vector_26" d="M30.152 62.1264C30.2645 62.104 30.3375 61.9941 30.3152 61.8817C30.2929 61.7683 30.1838 61.695 30.0707 61.7174C29.9578 61.7397 29.8847 61.8496 29.9071 61.9627C29.9291 62.0756 30.0388 62.1489 30.152 62.1264Z" fill="#0F7986"/>
</g>
<path id="Vector_27" d="M51.7328 60.4688C51.0009 60.3423 50.5101 59.6451 50.6362 58.9115C50.7624 58.1786 51.4579 57.6866 52.1899 57.8134C52.9218 57.9398 53.4129 58.637 53.2865 59.3699C53.16 60.1031 52.4641 60.5951 51.7325 60.4688H51.7328Z" fill="#FEFEFE"/>
<g id="Group_5">
<path id="Vector_28" d="M30.7783 40.8686C30.7573 40.8689 23.3657 40.9303 24.6142 47.4087L23.9267 47.5404C22.5193 40.2368 30.7468 40.1695 30.7701 40.1692L30.7783 40.8686Z" fill="#4D4D4D"/>
<path id="Vector_29" d="M45.528 40.2024C46.734 40.235 49.0651 40.5643 50.8595 42.7509C52.6154 44.8906 53.8464 48.8203 52.926 56.0253L52.2331 55.9376C53.124 48.9641 51.9727 45.2094 50.3204 43.1954C48.7061 41.2278 46.6011 40.9313 45.5121 40.9019L45.5284 40.2024H45.528Z" fill="#4D4D4D"/>
</g>
</g>
<defs>
<clipPath id="clip0">
<rect width="76.1181" height="76.2556" fill="white" transform="translate(0.088501 0.84668)"/>
</clipPath>
</defs>
</svg>
