<svg width="119" height="129" viewBox="0 0 119 129" fill="none" xmlns="http://www.w3.org/2000/svg">
<path d="M103.337 42.9861H79.4426V17.0502C79.4426 8.02583 72.7053 0.713135 64.3912 0.713135H55.6973H54.3262C46.0139 0.713135 39.2732 8.02583 39.2732 17.0502V42.9861H15.3773C7.06985 42.9861 0.328796 50.3012 0.328796 59.3217V70.2489C0.328796 79.2708 7.06985 86.5835 15.3773 86.5835H39.2735V112.52C39.2735 121.544 46.0143 128.861 54.3265 128.861H55.6976H64.3915C72.7057 128.861 79.4429 121.544 79.4429 112.52V86.5835H103.337C111.653 86.5835 118.39 79.2708 118.39 70.2489V59.3217C118.39 50.3012 111.652 42.9861 103.337 42.9861ZM78.9426 62.4153C78.0351 68.4146 71.4338 75.1579 66.1165 80.5876C66.1165 80.5876 63.4633 83.4792 62.6665 84.2204C62.0689 84.7787 60.7676 85.9015 59.3607 85.9015C57.9513 85.9015 56.6533 84.7787 56.0524 84.2204C55.256 83.4788 52.6021 80.5876 52.6021 80.5876C47.2845 75.1579 40.6839 68.4177 39.7761 62.4153C39.1398 58.1733 39.7608 54.6755 41.6252 52.0198C43.5065 49.3384 46.3691 47.8086 50.3781 47.3428C50.7667 47.3005 51.1152 47.2808 51.4675 47.2808C54.2994 47.2808 57.1632 48.4261 59.3582 50.3636C61.5567 48.4261 64.4173 47.2808 67.2547 47.2808C67.6038 47.2808 67.9557 47.3005 68.3409 47.3428C72.3496 47.8086 75.2099 49.3384 77.0931 52.0198C78.9582 54.6755 79.5788 58.1733 78.9426 62.4153Z" fill="#E74424"/>
<path d="M68.3402 47.3428C67.9551 47.3005 67.6028 47.2808 67.2541 47.2808C64.4167 47.2808 61.5561 48.4261 59.3576 50.3636C57.1622 48.4261 54.2987 47.2808 51.4668 47.2808C51.1146 47.2808 50.7661 47.3005 50.3775 47.3428C46.3688 47.8086 43.5059 49.3384 41.6246 52.0198C39.7601 54.6755 39.1392 58.1736 39.7754 62.4153C40.6836 68.4178 47.2839 75.1579 52.6015 80.5876C52.6015 80.5876 55.2551 83.4792 56.0518 84.2204C56.6527 84.7787 57.9507 85.9015 59.3601 85.9015C60.767 85.9015 62.0682 84.7787 62.6659 84.2204C63.4623 83.4788 66.1159 80.5876 66.1159 80.5876C71.4331 75.1579 78.0348 68.415 78.9419 62.4153C79.5782 58.1733 78.9576 54.6755 77.0925 52.0198C75.2096 49.3384 72.3493 47.8086 68.3402 47.3428Z" fill="#F7F1E6"/>
</svg>
