<svg width="108" height="118" viewBox="0 0 108 118" fill="none" xmlns="http://www.w3.org/2000/svg">
<path d="M94.2294 38.7334H72.3717V14.9691C72.3717 6.70039 66.2086 0 58.603 0H50.65H49.3957C41.7918 0 35.6255 6.70039 35.6255 14.9691V38.7334H13.7661C6.16658 38.7334 0 45.436 0 53.7012V63.7134C0 71.9799 6.16658 78.6803 13.7661 78.6803H35.6258V102.445C35.6258 110.714 41.7921 117.417 49.396 117.417H50.6503H58.6033C66.2089 117.417 72.372 110.714 72.372 102.445V78.6803H94.2297C101.837 78.6803 108 71.9799 108 63.7134V53.7012C108 45.436 101.836 38.7334 94.2294 38.7334ZM71.9143 56.5357C71.0841 62.0328 65.0454 68.2114 60.1812 73.1864C60.1812 73.1864 57.7541 75.8359 57.0253 76.5151C56.4786 77.0266 55.2882 78.0554 54.0012 78.0554C52.7119 78.0554 51.5245 77.0266 50.9749 76.5151C50.2463 75.8356 47.8186 73.1864 47.8186 73.1864C42.9542 68.2114 36.916 62.0356 36.0856 56.5357C35.5035 52.6489 36.0716 49.444 37.7771 47.0107C39.4981 44.5538 42.1167 43.1521 45.7841 42.7253C46.1396 42.6865 46.4584 42.6684 46.7806 42.6684C49.3712 42.6684 51.991 43.7179 53.9989 45.4931C56.0101 43.7179 58.6269 42.6684 61.2224 42.6684C61.5418 42.6684 61.8637 42.6865 62.216 42.7253C65.8831 43.1521 68.4997 44.5538 70.2225 47.0107C71.9286 49.444 72.4963 52.6489 71.9143 56.5357Z" fill="#E74424"/>
<path d="M62.2154 42.7253C61.8631 42.6865 61.5408 42.6685 61.2218 42.6685C58.6263 42.6685 56.0094 43.7179 53.9983 45.4931C51.99 43.7179 49.3705 42.6685 46.78 42.6685C46.4577 42.6685 46.139 42.6865 45.7834 42.7253C42.1164 43.1521 39.4975 44.5538 37.7765 47.0107C36.0709 49.4441 35.5029 52.6492 36.0849 56.5357C36.9157 62.0356 42.9535 68.2114 47.818 73.1864C47.818 73.1864 50.2454 75.8359 50.9742 76.515C51.5239 77.0266 52.7113 78.0554 54.0006 78.0554C55.2876 78.0554 56.4779 77.0266 57.0246 76.515C57.7532 75.8356 60.1806 73.1864 60.1806 73.1864C65.0447 68.2114 71.0838 62.0331 71.9136 56.5357C72.4957 52.6489 71.9279 49.4441 70.2218 47.0107C68.4993 44.5538 65.8828 43.1521 62.2154 42.7253Z" fill="#F7F1E6"/>
</svg>
