<svg width="31" height="28" viewBox="0 0 31 28" fill="none" xmlns="http://www.w3.org/2000/svg">
<path d="M15 13V24.1633C15.0567 24.5883 14.915 25.0417 14.5892 25.3392C14.4581 25.4705 14.3025 25.5747 14.1311 25.6458C13.9597 25.7169 13.776 25.7535 13.5904 25.7535C13.4049 25.7535 13.2212 25.7169 13.0498 25.6458C12.8784 25.5747 12.7228 25.4705 12.5917 25.3392L9.74419 22.4917C9.58968 22.3406 9.4722 22.1559 9.40093 21.9519C9.32966 21.7479 9.30653 21.5302 9.33336 21.3158V13H9.29086L1.13086 2.545C0.900802 2.24967 0.796996 1.87528 0.842122 1.50365C0.887249 1.13202 1.07764 0.793357 1.37169 0.561667C1.64086 0.363333 1.93836 0.25 2.25002 0.25H22.0834C22.395 0.25 22.6925 0.363333 22.9617 0.561667C23.2557 0.793357 23.4461 1.13202 23.4913 1.50365C23.5364 1.87528 23.4326 2.24967 23.2025 2.545L15.0425 13H15ZM19.25 20.0833H23.5V15.8333H26.3334V20.0833H30.5834V22.9167H26.3334V27.1667H23.5V22.9167H19.25V20.0833Z" fill="#4382AF"/>
</svg>
