<svg width="74" height="16" viewBox="0 0 74 16" fill="none" xmlns="http://www.w3.org/2000/svg">
<path d="M10.4984 15.5715H10.3859C9.56278 15.5715 8.89606 14.9047 8.89606 14.0816V10.7465C8.89606 9.92333 8.22934 9.25661 7.40618 9.25661H4.5918C3.76865 9.25661 3.10193 9.92333 3.10193 10.7465V14.0816C3.10193 14.9047 2.43521 15.5715 1.61205 15.5715H1.48988C0.66672 15.5715 0 14.9047 0 14.0816V2.43073C0 1.60757 0.66672 0.940854 1.48988 0.940854H1.61205C2.43521 0.940854 3.10193 1.60757 3.10193 2.43073V5.18477C3.10193 6.00793 3.76865 6.67465 4.5918 6.67465H7.40618C8.22934 6.67465 8.89606 6.00793 8.89606 5.18477V2.43073C8.89606 1.60757 9.56278 0.940854 10.3859 0.940854H10.4984C11.3216 0.940854 11.9883 1.60757 11.9883 2.43073V14.0816C11.9883 14.904 11.3208 15.5715 10.4984 15.5715Z" fill="#4290C9"/>
<path d="M19.0146 15.7719C17.2133 15.7719 15.8054 15.275 14.7915 14.2805C13.7776 13.2867 13.2703 11.8788 13.2703 10.0574C13.2703 8.18316 13.7389 6.73351 14.676 5.70922C15.6132 4.68493 16.9094 4.17316 18.5639 4.17316C20.1454 4.17316 21.376 4.6231 22.2565 5.52448C23.137 6.42511 23.5773 7.66916 23.5773 9.25737V9.69315C23.5773 10.2705 23.1095 10.7383 22.5322 10.7383H17.6811C16.8796 10.7383 16.3655 11.6099 16.773 12.3012C16.8743 12.4733 16.9943 12.6297 17.1328 12.7698C17.6133 13.2569 18.2868 13.5005 19.1546 13.5005C19.828 13.5005 20.4657 13.4305 21.0661 13.2905C21.2434 13.2487 21.4237 13.2003 21.6054 13.1445C22.2729 12.9396 22.9471 13.4476 22.9471 14.1464V14.2976C22.9471 14.7319 22.6797 15.123 22.2737 15.275C21.9407 15.3994 21.5943 15.5007 21.236 15.5774C20.6288 15.7063 19.8884 15.7719 19.0146 15.7719ZM18.584 6.34466C17.9366 6.34466 17.4301 6.54951 17.0628 6.95997C17.0554 6.96817 17.0479 6.97636 17.0412 6.98456C16.4587 7.65798 16.9481 8.70611 17.8383 8.70611H19.3498C20.2482 8.70611 20.7406 7.63638 20.1364 6.97189C20.1327 6.96742 20.129 6.9637 20.1253 6.95923C19.7446 6.55026 19.2306 6.34466 18.584 6.34466Z" fill="#4290C9"/>
<path d="M32.0204 15.5715C31.8119 15.5715 31.6241 15.4433 31.5489 15.2489L31.084 14.0503H31.0043C30.4903 14.6976 29.9622 15.1461 29.4184 15.3964C28.8746 15.6467 28.1661 15.7718 27.2916 15.7718C26.2174 15.7718 25.3719 15.4649 24.7551 14.8511C24.1382 14.2373 23.8291 13.3635 23.8291 12.2289C23.8291 11.0415 24.244 10.1662 25.0746 9.60226C25.9052 9.03835 27.1575 8.72696 28.8321 8.66662L30.2832 8.62192C30.5566 8.61373 30.7734 8.3895 30.7734 8.11611C30.7734 6.98231 30.1931 6.41467 29.0325 6.41467C28.2466 6.41467 27.3392 6.62325 26.3112 7.04116C26.0661 7.14099 25.7853 7.03223 25.6691 6.79459L25.0933 5.61982C24.9674 5.36282 25.0798 5.05218 25.3413 4.93447C26.5034 4.41302 27.7735 4.15303 29.1524 4.15303C30.6535 4.15303 31.8044 4.48007 32.6052 5.13338C33.406 5.78743 33.8061 6.78118 33.8061 8.11537V15.0649C33.8061 15.3443 33.5796 15.5707 33.3002 15.5707L32.0204 15.5715ZM30.7742 10.9111C30.7742 10.6251 30.5373 10.3956 30.2512 10.4053L29.5934 10.4277C28.7062 10.4545 28.0454 10.6146 27.6119 10.9081C27.1783 11.2016 26.9616 11.6486 26.9616 12.249C26.9616 13.1094 27.4555 13.54 28.4425 13.54C29.1494 13.54 29.7148 13.3366 30.1387 12.9299C30.5626 12.5232 30.7742 11.9823 30.7742 11.3089V10.9111Z" fill="#4290C9"/>
<path d="M37.0205 15.5715H36.9482C36.1251 15.5715 35.4583 14.9047 35.4583 14.0816V1.48988C35.4583 0.66672 36.1251 0 36.9482 0H37.0205C37.8436 0 38.5104 0.66672 38.5104 1.48988V14.0808C38.5104 14.904 37.8436 15.5715 37.0205 15.5715Z" fill="#4290C9"/>
<path d="M44.9362 13.3396C45.2461 13.3396 45.5925 13.3001 45.9739 13.2212C46.4291 13.1273 46.8574 13.4707 46.8574 13.9356V14.758C46.8574 15.0761 46.6518 15.3577 46.3486 15.4545C45.6916 15.6653 44.9273 15.7711 44.0557 15.7711C42.8347 15.7711 41.946 15.4627 41.3888 14.8451C40.8316 14.2283 40.553 13.3024 40.553 12.068V7.40469C40.553 7.00093 40.226 6.6739 39.8222 6.6739C39.4185 6.6739 39.0914 6.34688 39.0914 5.94312V5.79339C39.0914 5.53787 39.2248 5.30173 39.443 5.16913L40.556 4.49347C40.696 4.40854 40.804 4.27818 40.8614 4.12398L41.476 2.47543C41.5825 2.18937 41.8551 2.00016 42.1606 2.00016H42.8742C43.278 2.00016 43.605 2.32719 43.605 2.73094V3.65169C43.605 4.05544 43.932 4.38247 44.3358 4.38247H46.0067C46.4104 4.38247 46.7375 4.7095 46.7375 5.11326V5.94387C46.7375 6.34762 46.4104 6.67465 46.0067 6.67465H44.3358C43.932 6.67465 43.605 7.00168 43.605 7.40544V12.0688C43.605 12.5023 43.7264 12.8226 43.97 13.0297C44.2144 13.2361 44.5362 13.3396 44.9362 13.3396Z" fill="#4290C9"/>
<path d="M56.4671 15.5715H56.3948C55.5717 15.5715 54.905 14.9047 54.905 14.0816V9.03685C54.905 7.42257 54.3045 6.61506 53.1037 6.61506C52.25 6.61506 51.6325 6.90558 51.2525 7.48589C50.8719 8.0662 50.6819 9.00706 50.6819 10.3077V14.0816C50.6819 14.9047 50.0152 15.5715 49.192 15.5715H49.1198C48.2966 15.5715 47.6299 14.9047 47.6299 14.0816V1.48988C47.6299 0.66672 48.2966 0 49.1198 0H49.192C50.0152 0 50.6819 0.66672 50.6819 1.48988V3.17195C50.6819 3.41853 50.6581 3.99958 50.6119 4.91287L50.5501 5.70698C50.5456 5.76434 50.591 5.81351 50.6484 5.81351C50.6819 5.81351 50.7125 5.79637 50.7311 5.76806C51.4134 4.70429 52.4839 4.1724 53.9447 4.1724C55.2588 4.1724 56.2563 4.52625 56.9372 5.2332C57.6173 5.94014 57.9577 6.95475 57.9577 8.27553V14.0808C57.957 14.904 57.2895 15.5715 56.4671 15.5715Z" fill="#4290C9"/>
<path d="M59.4789 1.49137C59.4789 0.497621 60.0324 0 61.1401 0C62.2478 0 62.8013 0.496876 62.8013 1.49137C62.8013 1.96515 62.6628 2.33389 62.3857 2.59686C62.1085 2.86056 61.6936 2.99242 61.1401 2.99242C60.0324 2.99242 59.4789 2.49182 59.4789 1.49137ZM61.1714 15.5715H61.0991C60.276 15.5715 59.6093 14.9047 59.6093 14.0816V5.8731C59.6093 5.04994 60.276 4.38322 61.0991 4.38322H61.1714C61.9946 4.38322 62.6613 5.04994 62.6613 5.8731V14.0816C62.6613 14.904 61.9938 15.5715 61.1714 15.5715Z" fill="#4290C9"/>
<path d="M69.4372 15.7719C67.636 15.7719 66.2281 15.275 65.2142 14.2805C64.2003 13.2867 63.693 11.8788 63.693 10.0574C63.693 8.18316 64.1616 6.73351 65.0987 5.70922C66.0359 4.68493 67.332 4.17316 68.9866 4.17316C70.5673 4.17316 71.7987 4.6231 72.6792 5.52448C73.5597 6.42585 74 7.66916 74 9.25737V9.69315C74 10.2705 73.5322 10.7383 72.9548 10.7383H68.1038C67.3023 10.7383 66.7882 11.6099 67.1957 12.3012C67.297 12.4733 67.417 12.6297 67.5555 12.7698C68.036 13.2569 68.7094 13.5005 69.5773 13.5005C70.2507 13.5005 70.8884 13.4305 71.4888 13.2905C71.6661 13.2487 71.8464 13.2003 72.0281 13.1445C72.6956 12.9396 73.3698 13.4476 73.3698 14.1464V14.2976C73.3698 14.7319 73.1023 15.123 72.6964 15.275C72.3634 15.3994 72.017 15.5007 71.6587 15.5774C71.0515 15.7063 70.3111 15.7719 69.4372 15.7719ZM69.0067 6.34466C68.3593 6.34466 67.8528 6.54951 67.4855 6.95997C67.4781 6.96817 67.4706 6.97636 67.4639 6.98456C66.8814 7.65798 67.3708 8.70611 68.261 8.70611H69.7725C70.6709 8.70611 71.1633 7.63638 70.5591 6.97189C70.5554 6.96742 70.5517 6.9637 70.548 6.95923C70.168 6.55026 69.654 6.34466 69.0067 6.34466Z" fill="#4290C9"/>
</svg>
