<svg width="108" height="108" viewBox="0 0 108 108" fill="none" xmlns="http://www.w3.org/2000/svg">
<path d="M3.72414 11.1724H104.276V33.5172H3.72414V11.1724Z" fill="#7FCAC9"/>
<path d="M37.2414 0H70.7586V33.5172H37.2414V0Z" fill="#F4F4E6"/>
<path d="M3.72414 40.9656H104.276V108H3.72414V40.9656Z" fill="#7FCAC9"/>
<path d="M63.3103 13.0344H57.7241V7.44824H50.2759V13.0344H44.6897V20.4827H50.2759V26.0689H57.7241V20.4827H63.3103V13.0344Z" fill="#DD3E46"/>
<path d="M0 33.5171H108V40.9654H0V33.5171Z" fill="#195C85"/>
<path d="M63.3103 54H91.2414V108H63.3103V54Z" fill="#F4F4E6"/>
<path d="M16.7586 81.9312H50.2759V91.2415H16.7586V81.9312Z" fill="#195C85"/>
<path d="M20.4828 54H46.5517V81.931H20.4828V54Z" fill="#CFDFE8"/>
<path d="M63.3103 67.0344H91.2414V89.3792H63.3103V67.0344Z" fill="#CFDFE8"/>
<path d="M83.7931 80.0691C82.7648 80.0691 81.931 79.2354 81.931 78.2071V76.345C81.931 75.3167 82.7648 74.4829 83.7931 74.4829C84.8214 74.4829 85.6552 75.3167 85.6552 76.345V78.2071C85.6552 79.2354 84.8214 80.0691 83.7931 80.0691Z" fill="#195C85"/>
<path d="M27.931 68.8966C27.1782 68.8966 26.499 68.4429 26.2108 67.7473C25.9226 67.0518 26.0826 66.2508 26.6145 65.718L32.2007 60.1318C32.9317 59.4262 34.0928 59.4362 34.811 60.1545C35.5293 60.8728 35.5393 62.0338 34.8338 62.7648L29.2476 68.351C28.8984 68.7002 28.4247 68.8966 27.931 68.8966Z" fill="white"/>
<path d="M29.7931 76.3448C29.0403 76.3448 28.3611 75.8911 28.0729 75.1956C27.7847 74.5 27.9447 73.699 28.4766 73.1662L37.7869 63.8559C38.5179 63.1503 39.679 63.1603 40.3972 63.8786C41.1155 64.5969 41.1255 65.758 40.42 66.489L31.1096 75.7993C30.7605 76.1484 30.2868 76.3448 29.7931 76.3448Z" fill="white"/>
</svg>
