<svg width="129" height="129" viewBox="0 0 129 129" fill="none" xmlns="http://www.w3.org/2000/svg">
<g clip-path="url(#clip0)">
<path d="M123.85 9.40723H5.24284V123.975H123.85V9.40723Z" fill="#6EBEFF"/>
<path d="M55.2378 48.0825H8.85507V123.974H55.2378V48.0825Z" fill="white"/>
<path d="M30.9465 50.4143H11.1831V123.974H30.9465V50.4143Z" fill="#2D4151"/>
<path d="M53.0377 50.4143H33.2742V123.974H53.0377V50.4143Z" fill="#2D4151"/>
<path d="M120.571 48.0825H57.7314V94.5638H120.571V48.0825Z" fill="white"/>
<path d="M87.9878 50.4143H59.7263V92.3855H87.9878V50.4143Z" fill="#2D4151"/>
<path d="M118.577 50.4143H90.3152V92.3855H118.577V50.4143Z" fill="#2D4151"/>
<path opacity="0.2" d="M51.6698 91.6616V122.724H33.9246C33.9246 122.724 49.496 117.735 51.6698 91.6616Z" fill="#FCFAFA"/>
<path opacity="0.2" d="M29.7256 91.6616V122.724H11.9804C11.9804 122.724 27.5518 117.735 29.7256 91.6616Z" fill="#FCFAFA"/>
<path d="M28.2866 87.8701H26.6242V93.8631H28.2866V87.8701Z" fill="white"/>
<path d="M37.5963 87.8701H35.9338V93.8631H37.5963V87.8701Z" fill="white"/>
<path d="M122.17 15.0027H10.4536V40.2713H122.17V15.0027Z" fill="#5DB0E8"/>
<path d="M120.572 13.4021H8.85507V38.6707H120.572V13.4021Z" fill="white"/>
<path d="M21.7948 15.7153C16.0564 15.7153 11.4045 20.3362 11.4045 26.0365C11.4045 31.7368 16.0564 36.3577 21.7948 36.3577C27.5332 36.3577 32.185 31.7368 32.185 26.0365C32.185 20.3362 27.5332 15.7153 21.7948 15.7153ZM24.2558 28.481V34.2751H19.334V28.481H13.5009V23.5921H19.334V17.7975H24.2558V23.5921H30.089V28.481H24.2558Z" fill="#39B54A"/>
<path d="M74.2909 55.6091C69.6633 55.6091 65.9116 59.3357 65.9116 63.9327C65.9116 68.5296 69.663 72.2562 74.2909 72.2562C78.9185 72.2562 82.6702 68.5296 82.6702 63.9327C82.6702 59.3357 78.9188 55.6091 74.2909 55.6091ZM76.2755 65.904V70.5768H72.3063V65.904H67.6023V61.9613H72.3063V57.2885H76.2755V61.9613H80.9795V65.904H76.2755Z" fill="#51697A"/>
<path d="M73.7004 78.8254C69.7219 78.8254 66.4964 82.055 66.4964 86.0393V94.5643H80.9041V86.0393C80.9044 82.055 77.6789 78.8254 73.7004 78.8254Z" fill="white"/>
<path d="M68.4917 92.3855V86.0389C68.4917 83.1627 70.8284 80.8228 73.7008 80.8228C76.5731 80.8228 78.9095 83.1627 78.9095 86.0389V92.3855H68.4917Z" fill="#2D4151"/>
<path d="M70.7081 89.1668C71.2589 89.1668 71.7055 88.7196 71.7055 88.168C71.7055 87.6164 71.2589 87.1692 70.7081 87.1692C70.1572 87.1692 69.7106 87.6164 69.7106 88.168C69.7106 88.7196 70.1572 89.1668 70.7081 89.1668Z" fill="white"/>
<path d="M49.2496 26.4967C48.6581 26.8859 47.898 27.1732 46.8334 27.1732H44.1978V31.9439H42.6264V19.8142H46.8164C47.9482 19.8142 48.692 20.0509 49.3171 20.4741C50.263 21.117 50.8372 22.1828 50.8372 23.4516C50.8376 24.7374 50.2294 25.8707 49.2496 26.4967ZM48.5062 25.2448C48.9623 24.822 49.2326 24.1621 49.2326 23.4856C49.2326 22.7241 48.9118 22.0476 48.3712 21.6247C47.9994 21.3371 47.5263 21.1679 46.8337 21.1679H44.1981V25.8198H46.8337C47.5768 25.8198 48.1175 25.6001 48.5062 25.2448Z" fill="#E6E6E6"/>
<path d="M57.6798 31.9439V27.664C57.6798 26.9704 57.6123 26.5643 57.4434 26.209C57.1897 25.6846 56.7003 25.346 55.9735 25.346C55.247 25.346 54.6897 25.6843 54.3855 26.1411C54.1661 26.4794 54.0311 26.8516 54.0311 27.596V31.9439H52.5442V19.8142H54.0311V25.1263L54.048 25.1433C54.5717 24.5173 55.4671 24.1621 56.3286 24.1621C57.3084 24.1621 58.2713 24.6019 58.778 25.5155C59.0317 26.0062 59.1667 26.5643 59.1667 27.5288V31.9443H57.6798V31.9439Z" fill="#E6E6E6"/>
<path d="M65.9079 27.9007V27.3593C65.9079 26.5813 65.7386 26.1751 65.4347 25.8538C65.1135 25.5155 64.6574 25.3464 64.0998 25.3464C63.4917 25.3464 62.7147 25.5831 61.9878 26.1078L61.3967 25.0927C62.2585 24.4668 63.3228 24.1621 64.2857 24.1621C65.1807 24.1621 66.0089 24.4158 66.5831 25.0081C67.1743 25.651 67.3602 26.277 67.3602 27.3427V31.9443H65.992L65.9414 31.2168C65.4008 31.8597 64.404 32.1304 63.6267 32.1304C61.8528 32.1304 60.8055 30.9801 60.8055 29.6097C60.8055 28.3409 61.7684 27.123 63.6945 27.123C64.4549 27.1226 65.3503 27.4103 65.9079 27.9007ZM63.9818 28.1714C62.9344 28.1714 62.2585 28.7467 62.2585 29.5924C62.2585 30.4214 62.9005 31.0304 63.9648 31.0304C65.0291 31.0304 65.9079 30.489 65.9079 29.5924C65.9079 28.6791 64.8605 28.1714 63.9818 28.1714Z" fill="#E6E6E6"/>
<path d="M72.4801 25.4816C71.5848 25.4816 70.8413 26.1414 70.8413 27.8331V31.9439H69.3544V24.3312H70.7565L70.8074 25.3124C71.3138 24.6189 71.9561 24.1621 72.8007 24.1621C73.1893 24.1621 73.5105 24.2467 73.8989 24.4668L73.578 25.7692C73.2402 25.6001 72.8176 25.4816 72.4801 25.4816Z" fill="#E6E6E6"/>
<path d="M81.0454 25.2448C81.6535 24.5683 82.4984 24.1621 83.5966 24.1621C84.5425 24.1621 85.5898 24.5853 86.063 25.5155C86.2997 26.0063 86.4177 26.5643 86.4177 27.5288V31.9443H84.9309V27.664C84.9309 26.9705 84.8634 26.5643 84.7114 26.209C84.4747 25.6847 84.0015 25.346 83.3259 25.346C82.6333 25.346 82.1266 25.6507 81.839 26.1075C81.6365 26.4458 81.5012 26.8519 81.5012 27.5961V31.9439H80.0143V27.664C80.0143 26.9705 79.9468 26.5643 79.7949 26.209C79.5582 25.6847 79.085 25.346 78.4094 25.346C77.7168 25.346 77.2101 25.6507 76.9225 26.1075C76.72 26.4458 76.5847 26.8519 76.5847 27.5961V31.9439H75.0978V24.3312H76.483L76.5508 25.2618C76.8717 24.788 77.6996 24.1621 78.8313 24.1621C79.6769 24.1621 80.5217 24.5174 81.0454 25.2448Z" fill="#E6E6E6"/>
<path d="M93.1596 27.9007V27.3593C93.1596 26.5813 92.9903 26.1751 92.6864 25.8538C92.3652 25.5155 91.9091 25.3464 91.3515 25.3464C90.7434 25.3464 89.9663 25.5831 89.2395 26.1078L88.6483 25.0927C89.5102 24.4668 90.5745 24.1621 91.5373 24.1621C92.4324 24.1621 93.2606 24.4158 93.8348 25.0081C94.426 25.651 94.6119 26.277 94.6119 27.3427V31.9443H93.2437L93.1931 31.2168C92.6525 31.8597 91.6557 32.1304 90.8783 32.1304C89.1045 32.1304 88.0572 30.9801 88.0572 29.6097C88.0572 28.3409 89.0201 27.123 90.9462 27.123C91.7066 27.1226 92.602 27.4103 93.1596 27.9007ZM91.2335 28.1714C90.1861 28.1714 89.5102 28.7467 89.5102 29.5924C89.5102 30.4214 90.1522 31.0304 91.2165 31.0304C92.2808 31.0304 93.1596 30.489 93.1596 29.5924C93.1596 28.6791 92.1119 28.1714 91.2335 28.1714Z" fill="#E6E6E6"/>
<path d="M100.171 30.9456C101.168 30.9456 101.793 30.4888 102.384 29.6768L103.431 30.4043C102.739 31.487 101.59 32.1299 100.204 32.1299C97.856 32.1299 96.2344 30.3197 96.2344 28.1543C96.2344 25.9718 97.9407 24.1616 100.204 24.1616C101.505 24.1616 102.654 24.703 103.364 25.6842L102.35 26.5132C101.877 25.8873 101.167 25.3629 100.17 25.3629C98.8192 25.3629 97.721 26.5641 97.721 28.1543C97.7213 29.7953 98.8192 30.9456 100.171 30.9456Z" fill="#E6E6E6"/>
<path d="M104.09 24.3313H105.712L108.01 30.0832H108.044L110.24 24.3313H111.676L107.148 35.4798H105.678L107.216 31.8258L104.09 24.3313Z" fill="#E6E6E6"/>
<path d="M48.2521 25.4979C47.6606 25.8871 46.9006 26.1744 45.8359 26.1744H43.2003V30.9451H41.629V18.8154H45.819C46.9508 18.8154 47.6946 19.0522 48.3196 19.4753C49.2656 20.1182 49.8398 21.184 49.8398 22.4528C49.8401 23.7386 49.232 24.872 48.2521 25.4979ZM47.5087 24.246C47.9649 23.8232 48.2352 23.1633 48.2352 22.4868C48.2352 21.7253 47.9143 21.0488 47.3737 20.626C47.002 20.3383 46.5289 20.1692 45.8363 20.1692H43.2007V24.821H45.8363C46.5794 24.821 47.12 24.6013 47.5087 24.246Z" fill="#2D4151"/>
<path d="M56.6824 30.9451V26.6652C56.6824 25.9717 56.6149 25.5655 56.446 25.2102C56.1923 24.6858 55.7029 24.3472 54.9761 24.3472C54.2496 24.3472 53.6924 24.6855 53.3881 25.1423C53.1687 25.4806 53.0337 25.8528 53.0337 26.5973V30.9451H51.5468V18.8154H53.0337V24.1275L53.0507 24.1445C53.5743 23.5186 54.4697 23.1633 55.3312 23.1633C56.311 23.1633 57.2739 23.6031 57.7806 24.5167C58.0343 25.0075 58.1693 25.5655 58.1693 26.53V30.9455H56.6824V30.9451Z" fill="#2D4151"/>
<path d="M64.9104 26.9019V26.3606C64.9104 25.5825 64.7412 25.1763 64.4373 24.855C64.1161 24.5167 63.6599 24.3476 63.1023 24.3476C62.4942 24.3476 61.7172 24.5843 60.9904 25.109L60.3992 24.0939C61.261 23.468 62.3253 23.1633 63.2882 23.1633C64.1832 23.1633 65.0115 23.417 65.5857 24.0093C66.1768 24.6522 66.3627 25.2782 66.3627 26.3439V30.9455H64.9945L64.944 30.218C64.4033 30.8609 63.4066 31.1316 62.6292 31.1316C60.8554 31.1316 59.8081 29.9813 59.8081 28.6109C59.8081 27.3421 60.7709 26.1242 62.697 26.1242C63.4574 26.1238 64.3528 26.4115 64.9104 26.9019ZM62.9843 27.1726C61.937 27.1726 61.261 27.7479 61.261 28.5936C61.261 29.4226 61.903 30.0316 62.9673 30.0316C64.0316 30.0316 64.9104 29.4902 64.9104 28.5936C64.9104 27.6803 63.8631 27.1726 62.9843 27.1726Z" fill="#2D4151"/>
<path d="M71.4827 24.4828C70.5873 24.4828 69.8439 25.1427 69.8439 26.8343V30.9452H68.357V23.3325H69.7591L69.81 24.3136C70.3163 23.6201 70.9587 23.1633 71.8032 23.1633C72.1919 23.1633 72.5131 23.2479 72.9014 23.468L72.5806 24.7704C72.2428 24.6013 71.8202 24.4828 71.4827 24.4828Z" fill="#2D4151"/>
<path d="M80.0479 24.2461C80.6561 23.5695 81.5009 23.1633 82.5991 23.1633C83.545 23.1633 84.5924 23.5865 85.0655 24.5167C85.3022 25.0075 85.4203 25.5655 85.4203 26.53V30.9455H83.9334V26.6652C83.9334 25.9717 83.8659 25.5655 83.7139 25.2103C83.4772 24.6859 83.0041 24.3473 82.3285 24.3473C81.6359 24.3473 81.1292 24.6519 80.8416 25.1087C80.6391 25.447 80.5038 25.8532 80.5038 26.5973V30.9452H79.0169V26.6652C79.0169 25.9717 78.9494 25.5655 78.7975 25.2103C78.5607 24.6859 78.0876 24.3473 77.412 24.3473C76.7194 24.3473 76.2127 24.6519 75.9251 25.1087C75.7226 25.447 75.5873 25.8532 75.5873 26.5973V30.9452H74.1004V23.3325H75.4855L75.5534 24.263C75.8742 23.7893 76.7021 23.1633 77.8339 23.1633C78.6794 23.1633 79.5243 23.5186 80.0479 24.2461Z" fill="#2D4151"/>
<path d="M92.1621 26.9019V26.3606C92.1621 25.5825 91.9928 25.1763 91.6889 24.855C91.3677 24.5167 90.9116 24.3476 90.354 24.3476C89.7459 24.3476 88.9688 24.5843 88.242 25.109L87.6509 24.0939C88.5127 23.468 89.577 23.1633 90.5399 23.1633C91.4349 23.1633 92.2631 23.417 92.8373 24.0093C93.4285 24.6522 93.6143 25.2782 93.6143 26.3439V30.9455H92.2462L92.1956 30.218C91.655 30.8609 90.6582 31.1316 89.8809 31.1316C88.107 31.1316 87.0597 29.9813 87.0597 28.6109C87.0597 27.3421 88.0226 26.1242 89.9487 26.1242C90.7091 26.1238 91.6045 26.4115 92.1621 26.9019ZM90.236 27.1726C89.1886 27.1726 88.5127 27.7479 88.5127 28.5936C88.5127 29.4226 89.1547 30.0316 90.219 30.0316C91.2833 30.0316 92.1621 29.4902 92.1621 28.5936C92.1621 27.6803 91.1144 27.1726 90.236 27.1726Z" fill="#2D4151"/>
<path d="M99.1733 29.9468C100.17 29.9468 100.795 29.4901 101.387 28.678L102.434 29.4055C101.741 30.4882 100.592 31.1311 99.2069 31.1311C96.8585 31.1311 95.237 29.3209 95.237 27.1555C95.237 24.973 96.9433 23.1628 99.2069 23.1628C100.508 23.1628 101.657 23.7042 102.366 24.6854L101.352 25.5144C100.88 24.8885 100.17 24.3641 99.173 24.3641C97.8217 24.3641 96.7235 25.5653 96.7235 27.1555C96.7238 28.7965 97.8217 29.9468 99.1733 29.9468Z" fill="#2D4151"/>
<path d="M103.093 23.3325H104.715L107.012 29.0844H107.047L109.243 23.3325H110.678L106.151 34.481H104.681L106.218 30.827L103.093 23.3325Z" fill="#2D4151"/>
<path d="M116.582 85.1716H92.3101V87.3914H116.582V85.1716Z" fill="#6EBEFF"/>
<path d="M116.582 68.9683H92.3101V71.188H116.582V68.9683Z" fill="#6EBEFF"/>
<path d="M112.617 78.0691H109.262C108.719 78.0691 108.28 78.5096 108.28 79.0526V85.1717H113.599V79.0526C113.599 78.5092 113.159 78.0691 112.617 78.0691Z" fill="white"/>
<path d="M112.602 76.4043H109.262V78.069H112.602V76.4043Z" fill="#ED4C58"/>
<path d="M107.075 61.8657H103.72C103.177 61.8657 102.738 62.3062 102.738 62.8492V68.9684H108.058V62.8492C108.058 62.3062 107.618 61.8657 107.075 61.8657Z" fill="white"/>
<path d="M107.06 60.2009H103.72V61.8656H107.06V60.2009Z" fill="#39B54A"/>
<path d="M102.627 77.2918H97.4177C97.1424 77.2918 96.919 77.068 96.919 76.7924V73.2409C96.919 72.9652 97.1424 72.7415 97.4177 72.7415H102.627C102.902 72.7415 103.126 72.9652 103.126 73.2409V76.7924C103.126 77.0687 102.902 77.2918 102.627 77.2918ZM97.9168 76.293H102.128V73.7403H97.9168V76.293Z" fill="#39B54A"/>
<path d="M103.987 75.0725H96.0582C95.4628 75.0725 94.98 75.5559 94.98 76.1522V84.0915C94.98 84.6878 95.4628 85.1713 96.0582 85.1713H103.987C104.582 85.1713 105.065 84.6878 105.065 84.0915V76.1522C105.065 75.5563 104.582 75.0725 103.987 75.0725Z" fill="#39B54A"/>
<path d="M100.022 76.5581C98.0408 76.5581 96.4346 78.1536 96.4346 80.1219C96.4346 82.0903 98.0408 83.6857 100.022 83.6857C102.004 83.6857 103.61 82.0903 103.61 80.1219C103.61 78.1539 102.004 76.5581 100.022 76.5581ZM100.872 80.9666V82.9672H99.173V80.9666H97.1587V79.2786H99.173V77.2779H100.872V79.2786H102.887V80.9666H100.872Z" fill="white"/>
<path d="M100.299 66.749H96.0878V68.9688H100.299V66.749Z" fill="#ED4C58"/>
<path d="M101.065 59.8682H95.5445L96.0882 66.7491H100.299L101.065 59.8682Z" fill="white"/>
<path d="M115.04 60.6448H110.053V68.9683H115.04V60.6448Z" fill="white"/>
<path d="M113.914 66.5824H111.178C110.924 66.5824 110.718 66.3756 110.718 66.1209V63.4927C110.718 63.2377 110.924 63.0312 111.178 63.0312H113.914C114.168 63.0312 114.375 63.238 114.375 63.4927V66.1209C114.375 66.3756 114.168 66.5824 113.914 66.5824Z" fill="#ED4C58"/>
<path d="M85.7807 94.564H64.0583V99.669H85.7807V94.564Z" fill="#5DB0E8"/>
<path d="M84.2294 92.385H62.5069V97.49H84.2294V92.385Z" fill="white"/>
<path d="M128.533 5.59863H0.559784V9.40681H128.533V5.59863Z" fill="#5DB0E8"/>
<path d="M109.766 104.26H68.5372C65.6911 104.26 63.3837 106.571 63.3837 109.421C63.3837 112.271 65.6911 114.581 68.5372 114.581H109.766C112.612 114.581 114.919 112.271 114.919 109.421C114.919 106.571 112.612 104.26 109.766 104.26Z" fill="#5DB0E8"/>
</g>
<defs>
<clipPath id="clip0">
<rect width="127.973" height="128.147" fill="white" transform="translate(0.559784 0.713135)"/>
</clipPath>
</defs>
</svg>
