<svg width="22" height="22" viewBox="0 0 22 22" fill="none" xmlns="http://www.w3.org/2000/svg">
<path d="M21.1608 20.0923L14.4161 13.3477C15.4628 11.9946 16.0289 10.3402 16.0289 8.60015C16.0289 6.51728 15.216 4.56425 13.7461 3.09169C12.2761 1.61913 10.3179 0.808838 8.23761 0.808838C6.15732 0.808838 4.19911 1.62173 2.72914 3.09169C1.25659 4.56166 0.446289 6.51728 0.446289 8.60015C0.446289 10.6804 1.25918 12.6387 2.72914 14.1086C4.19911 15.5812 6.15473 16.3915 8.23761 16.3915C9.97767 16.3915 11.6294 15.8253 12.9825 14.7813L19.7272 21.5234C19.747 21.5431 19.7705 21.5588 19.7963 21.5695C19.8222 21.5803 19.8499 21.5858 19.8778 21.5858C19.9058 21.5858 19.9335 21.5803 19.9594 21.5695C19.9852 21.5588 20.0087 21.5431 20.0285 21.5234L21.1608 20.3936C21.1806 20.3738 21.1963 20.3504 21.207 20.3245C21.2177 20.2987 21.2232 20.271 21.2232 20.243C21.2232 20.215 21.2177 20.1873 21.207 20.1615C21.1963 20.1356 21.1806 20.1121 21.1608 20.0923ZM12.3514 12.714C11.2502 13.8125 9.79067 14.4177 8.23761 14.4177C6.68454 14.4177 5.22496 13.8125 4.12379 12.714C3.02521 11.6128 2.42009 10.1532 2.42009 8.60015C2.42009 7.04709 3.02521 5.58492 4.12379 4.48634C5.22496 3.38776 6.68454 2.78264 8.23761 2.78264C9.79067 2.78264 11.2528 3.38517 12.3514 4.48634C13.45 5.58751 14.0551 7.04709 14.0551 8.60015C14.0551 10.1532 13.45 11.6154 12.3514 12.714Z" fill="#4382AF"/>
</svg>
