<svg width="14" height="11" viewBox="0 0 14 11" fill="none" xmlns="http://www.w3.org/2000/svg">
<path d="M13.5038 0.344588C13.3623 0.221988 13.1985 0.128843 13.0216 0.0704718C12.8446 0.0121008 12.6581 -0.0103524 12.4726 0.00439457C12.2871 0.0191416 12.1063 0.0708 11.9405 0.156419C11.7747 0.242039 11.6272 0.359942 11.5063 0.503396L5.40652 7.74051L2.12447 4.96138C1.86085 4.73832 1.52071 4.63047 1.17875 4.66151C0.836792 4.69256 0.520956 4.85996 0.300596 5.12696C0.19173 5.25909 0.109608 5.41169 0.0589231 5.57602C0.00823781 5.74035 -0.0100172 5.91321 0.00520184 6.0847C0.0204209 6.25619 0.0688153 6.42296 0.147619 6.57548C0.226423 6.72799 0.334092 6.86326 0.464471 6.97356L4.86239 10.6975C4.9981 10.8123 5.15566 10.8974 5.32524 10.9477C5.49483 10.9979 5.67281 11.0122 5.84807 10.9896C6.03385 10.9751 6.21497 10.9235 6.38105 10.8379C6.54712 10.7522 6.69488 10.6341 6.81585 10.4904L13.6604 2.36938C13.9044 2.07973 14.025 1.70362 13.9957 1.32379C13.9663 0.943958 13.7894 0.591511 13.5038 0.343973" fill="#F5F5F5"/>
</svg>
