<svg width="842" height="1086" viewBox="0 0 842 1086" fill="none" xmlns="http://www.w3.org/2000/svg">
<g opacity="0.2">
<path d="M547.543 523.501C551.741 564.626 574.44 598.626 596.392 631.508C621.313 668.839 644.853 704.097 635.14 742.836C627.468 773.439 599.565 805.607 549.836 841.173C500.546 876.421 460.164 889.384 429.823 879.679C375.049 862.162 357.536 773.564 345.949 714.936C342.195 695.942 339.161 680.605 335.515 669.475C333.293 671.109 331.029 672.721 328.695 674.29C323.864 677.528 319.031 680.428 314.214 683.074C317.193 693.231 320.094 707.892 323.108 723.138C335.597 786.324 354.471 881.81 419.92 902.742C455.045 913.979 499.002 902.074 550.712 867.353C554.094 865.082 557.518 862.708 560.966 860.243C616.607 820.447 648.227 782.867 657.629 745.352C669.914 696.345 642.615 655.45 616.212 615.903C580.963 563.103 547.337 512.723 590.378 440.29C583.347 438.138 576.762 434.877 570.859 430.548C552.107 462.244 544.428 492.987 547.543 523.501Z" fill="#2B3237"/>
<path d="M334.27 656.762C391.656 614.833 411.019 551.91 405.425 530.906C390.046 566.233 362.873 598.141 324.413 626.004C323.29 627.098 322.066 628.108 320.738 629.006C320.074 629.456 319.406 629.902 318.742 630.344C271.069 662.13 226.219 676.079 185.399 671.806C185.254 671.791 185.115 671.766 184.971 671.75C185.068 672.302 185.256 672.846 185.543 673.38C194.21 689.494 252.287 703.318 313.538 669.903C318.225 667.346 322.928 664.544 327.632 661.413C329.904 659.899 332.107 658.341 334.27 656.762Z" fill="#C3BFB8"/>
<path d="M99.7384 566.121C98.1269 563.461 96.551 560.76 95.0534 557.966C71.2991 513.647 64.675 454.906 89.632 414.078C82.4849 414.263 75.7394 411.115 71.5286 405.049C61.8531 421.405 55.7059 440.47 53.5951 461.399C49.9656 497.39 58.0896 536.101 76.4707 570.395C78.7435 574.635 81.1559 578.724 83.6701 582.691C85.3284 578.253 88.0964 574.107 91.9291 570.811C94.3645 568.721 97.0142 567.18 99.7384 566.121Z" fill="#2B3237"/>
<path d="M368.888 388.685C373.298 386.466 377.878 385.7 382.163 386.164C380.22 381.813 378.132 377.507 375.859 373.267C357.478 338.973 330.77 312.692 300.655 299.27C283.143 291.464 265.196 288.514 247.721 290.317C250.52 297.329 249.819 305.456 246.299 312.407C290.3 307.115 333.525 341.377 357.278 385.694C358.775 388.487 360.163 391.316 361.501 394.159C363.624 391.974 366.092 390.094 368.888 388.685Z" fill="#2B3237"/>
<path d="M314.891 625.669C315.559 625.222 316.232 624.771 316.903 624.315C318.243 623.407 319.475 622.383 320.607 621.276C359.38 593.074 386.775 560.776 402.279 525.017C403.483 522.239 404.637 519.446 405.698 516.626C419.84 479.025 420.189 439.834 406.711 403.292C403.866 395.58 397.36 390.849 389.914 390.044C385.802 389.6 381.407 390.336 377.175 392.466C374.491 393.819 372.123 395.625 370.086 397.721C363.098 404.916 360.212 415.722 363.632 424.991C385.122 483.258 356.756 543.55 285.911 590.306C285.862 590.337 285.815 590.368 285.766 590.401C285.645 590.482 285.534 590.579 285.416 590.662C219.221 631.922 162.224 629.335 128.095 582.898C122.402 575.151 112.522 572.892 103.549 576.381C100.933 577.399 98.3907 578.88 96.0565 580.886C92.3777 584.051 89.7206 588.035 88.1307 592.297C85.2495 600.017 85.9067 608.663 90.6439 615.109C112.999 645.527 143.907 663.655 180.043 667.573C180.188 667.589 180.328 667.614 180.473 667.63C221.616 671.96 266.83 657.842 314.891 625.669Z" fill="#E0DCD3"/>
<path d="M82.5809 415.279C86.9415 415.167 91.453 413.791 95.6089 411.001C107.148 403.253 122.003 380.686 115.897 369.248C109.791 357.81 85.0362 361.833 73.4968 369.58C61.956 377.329 57.5508 392.883 63.6567 404.321C64.0572 405.071 64.4961 405.78 64.9638 406.457C69.0614 412.383 75.6242 415.46 82.5809 415.279Z" fill="#E6A123"/>
<path d="M249.452 284.635C249.141 283.853 248.79 283.084 248.39 282.334C242.284 270.896 227.978 267.904 216.437 275.652C204.896 283.401 190.043 305.97 196.149 317.408C202.255 328.847 227.009 324.823 238.55 317.074C242.706 314.284 245.918 310.474 248.067 306.216C251.493 299.424 252.175 291.485 249.452 284.635Z" fill="#E6A123"/>
<path d="M569.558 294.618C529.947 321.215 513.946 372.95 533.815 410.174C538.611 419.159 545.07 426.457 552.649 432.017C558.552 436.346 565.136 439.607 572.165 441.757C593.509 448.287 618.908 444.594 641.514 429.416C681.125 402.819 697.126 351.084 677.257 313.86C657.387 276.637 609.17 268.022 569.558 294.618ZM635.02 417.254C602.557 439.05 563.041 431.989 546.758 401.483C530.474 370.977 543.59 328.577 576.051 306.781C608.512 284.986 648.029 292.045 664.313 322.552C680.596 353.057 667.482 395.457 635.02 417.254Z" fill="#E0DCD3"/>
<path d="M576.05 306.78C543.588 328.577 530.473 370.976 546.757 401.482C563.041 431.989 602.558 439.048 635.019 417.252C667.48 395.457 680.596 353.056 664.312 322.551C648.029 292.045 608.513 284.984 576.05 306.78ZM619.502 388.182C604.124 398.508 585.406 395.162 577.693 380.712C569.98 366.262 576.193 346.177 591.569 335.853C606.947 325.528 625.665 328.875 633.378 343.323C641.091 357.773 634.88 377.857 619.502 388.182Z" fill="#F7F1E6"/>
<path d="M620.113 389.328C636.163 378.551 642.647 357.588 634.596 342.506C626.545 327.423 607.007 323.932 590.958 334.708C574.908 345.485 568.424 366.448 576.475 381.53C584.526 396.613 604.063 400.104 620.113 389.328Z" fill="#2B3237"/>
</g>
</svg>
